<svg xmlns="http://www.w3.org/2000/svg" viewBox="0 0 880 330" width="880" height="330" role="img" aria-label="Terminal banner reading ALI YOUSUF">
  <title>Ali Afzal Yousuf - AI Engineer</title>
  <defs>
    <linearGradient id="sunset" gradientUnits="userSpaceOnUse" x1="50" y1="0" x2="655" y2="0"><stop offset="0%" stop-color="#ff4d8d"/><stop offset="20%" stop-color="#ff6a5e"/><stop offset="40%" stop-color="#ff7b4a"/><stop offset="60%" stop-color="#ff9a3c"/><stop offset="80%" stop-color="#ffb85c"/><stop offset="100%" stop-color="#ffd166"/></linearGradient>
    <linearGradient id="bg" x1="0" y1="0" x2="0.4" y2="1">
      <stop offset="0%" stop-color="#1b1026"/><stop offset="100%" stop-color="#120a1a"/>
    </linearGradient>
    <linearGradient id="glow" x1="0" y1="0" x2="0" y2="1">
      <stop offset="0%" stop-color="#ff7b4a" stop-opacity="0.15"/>
      <stop offset="100%" stop-color="#ff7b4a" stop-opacity="0"/>
    </linearGradient>
    <clipPath id="frame"><rect x="0" y="0" width="880" height="330" rx="12"/></clipPath>
    <mask id="m1"><rect class="wipe w1" x="50" y="178" width="184.8" height="20" fill="#fff"/></mask>
    <mask id="m2"><rect class="wipe w2" x="50" y="240" width="218.4" height="20" fill="#fff"/></mask>
    <style>
      .mono { font-family: ui-monospace,'SFMono-Regular','JetBrains Mono','Cascadia Mono',Consolas,'Liberation Mono',Menlo,monospace; }
      .px,.scene,.wipe,.out,.chip,.cur { animation-duration:14s; animation-iteration-count:infinite; animation-timing-function:linear; }
      .scene { animation-name:sceneFade; }
      @keyframes sceneFade { 0%,94% {opacity:1} 99%,100% {opacity:0} }
      .px { fill:url(#sunset); opacity:0; animation-name:pxIn; transform-box:fill-box; transform-origin:center; }
      @keyframes pxIn { 0%,1% {opacity:0;transform:scale(.35)} 6%,100% {opacity:1;transform:scale(1)} }
      .wipe { transform-box:fill-box; transform-origin:left center; }
      .w1 { animation-name:type1; } .w2 { animation-name:type2; }
      @keyframes type1 { 0%,18% {transform:scaleX(0)} 27%,100% {transform:scaleX(1)} }
      @keyframes type2 { 0%,36% {transform:scaleX(0)} 46%,100% {transform:scaleX(1)} }
      .cur { opacity:0; }
      .cur1 { animation-name:cur1; } .cur2 { animation-name:cur2; }
      @keyframes cur1 { 0%,17% {opacity:0;transform:translateX(0)} 18% {opacity:1;transform:translateX(0)}
        27%,33% {opacity:1;transform:translateX(184.8px)} 34%,100% {opacity:0;transform:translateX(184.8px)} }
      @keyframes cur2 { 0%,35% {opacity:0;transform:translateX(0)} 36% {opacity:1;transform:translateX(0)}
        46%,100% {opacity:1;transform:translateX(218.4px)} }
      .blink { animation:blink 1.06s steps(1,end) infinite; }
      @keyframes blink { 0%,50% {opacity:1} 50.01%,100% {opacity:0} }
      .out { opacity:0; animation-name:fadeUp; animation-delay:3.9s; }
      @keyframes fadeUp { 0%,2% {opacity:0;transform:translateY(4px)} 6%,100% {opacity:1;transform:translateY(0)} }
      .chip { opacity:0; animation-name:chipIn; transform-box:fill-box; transform-origin:center; }
      @keyframes chipIn { 0%,2% {opacity:0;transform:translateY(5px) scale(.94)} 6%,100% {opacity:1;transform:translateY(0) scale(1)} }
      @media (prefers-reduced-motion:reduce) {
        .px,.scene,.wipe,.out,.chip,.cur,.blink { animation:none !important; opacity:1 !important; transform:none !important; }
      }
    </style>
  </defs>

  <g clip-path="url(#frame)">
    <rect width="880" height="330" fill="url(#bg)"/>
    <rect y="34" width="880" height="150" fill="url(#glow)"/>
    <rect width="880" height="34" fill="#2a1836"/>
    <circle cx="24" cy="17" r="6" fill="#ff5f57"/><circle cx="46" cy="17" r="6" fill="#febc2e"/><circle cx="68" cy="17" r="6" fill="#28c840"/>
    <text class="mono" x="440" y="22" font-size="12.5" fill="#a98bb8" text-anchor="middle">3liAf@github - zsh</text>

    <g class="scene">
        <rect class="px" x="61" y="64" width="9.0" height="15.0" rx="1.5" style="animation-delay:0.022s"/>
        <rect class="px" x="72" y="64" width="9.0" height="15.0" rx="1.5" style="animation-delay:0.044s"/>
        <rect class="px" x="83" y="64" width="9.0" height="15.0" rx="1.5" style="animation-delay:0.066s"/>
        <rect class="px" x="50" y="81" width="9.0" height="15.0" rx="1.5" style="animation-delay:0.0s"/>
        <rect class="px" x="94" y="81" width="9.0" height="15.0" rx="1.5" style="animation-delay:0.088s"/>
        <rect class="px" x="50" y="98" width="9.0" height="15.0" rx="1.5" style="animation-delay:0.0s"/>
        <rect class="px" x="61" y="98" width="9.0" height="15.0" rx="1.5" style="animation-delay:0.022s"/>
        <rect class="px" x="72" y="98" width="9.0" height="15.0" rx="1.5" style="animation-delay:0.044s"/>
        <rect class="px" x="83" y="98" width="9.0" height="15.0" rx="1.5" style="animation-delay:0.066s"/>
        <rect class="px" x="94" y="98" width="9.0" height="15.0" rx="1.5" style="animation-delay:0.088s"/>
        <rect class="px" x="50" y="115" width="9.0" height="15.0" rx="1.5" style="animation-delay:0.0s"/>
        <rect class="px" x="94" y="115" width="9.0" height="15.0" rx="1.5" style="animation-delay:0.088s"/>
        <rect class="px" x="50" y="132" width="9.0" height="15.0" rx="1.5" style="animation-delay:0.0s"/>
        <rect class="px" x="94" y="132" width="9.0" height="15.0" rx="1.5" style="animation-delay:0.088s"/>
        <rect class="px" x="116" y="64" width="9.0" height="15.0" rx="1.5" style="animation-delay:0.132s"/>
        <rect class="px" x="116" y="81" width="9.0" height="15.0" rx="1.5" style="animation-delay:0.132s"/>
        <rect class="px" x="116" y="98" width="9.0" height="15.0" rx="1.5" style="animation-delay:0.132s"/>
        <rect class="px" x="116" y="115" width="9.0" height="15.0" rx="1.5" style="animation-delay:0.132s"/>
        <rect class="px" x="116" y="132" width="9.0" height="15.0" rx="1.5" style="animation-delay:0.132s"/>
        <rect class="px" x="127" y="132" width="9.0" height="15.0" rx="1.5" style="animation-delay:0.154s"/>
        <rect class="px" x="138" y="132" width="9.0" height="15.0" rx="1.5" style="animation-delay:0.176s"/>
        <rect class="px" x="149" y="132" width="9.0" height="15.0" rx="1.5" style="animation-delay:0.198s"/>
        <rect class="px" x="160" y="132" width="9.0" height="15.0" rx="1.5" style="animation-delay:0.22s"/>
        <rect class="px" x="182" y="64" width="9.0" height="15.0" rx="1.5" style="animation-delay:0.264s"/>
        <rect class="px" x="193" y="64" width="9.0" height="15.0" rx="1.5" style="animation-delay:0.286s"/>
        <rect class="px" x="204" y="64" width="9.0" height="15.0" rx="1.5" style="animation-delay:0.308s"/>
        <rect class="px" x="215" y="64" width="9.0" height="15.0" rx="1.5" style="animation-delay:0.33s"/>
        <rect class="px" x="226" y="64" width="9.0" height="15.0" rx="1.5" style="animation-delay:0.352s"/>
        <rect class="px" x="204" y="81" width="9.0" height="15.0" rx="1.5" style="animation-delay:0.308s"/>
        <rect class="px" x="204" y="98" width="9.0" height="15.0" rx="1.5" style="animation-delay:0.308s"/>
        <rect class="px" x="204" y="115" width="9.0" height="15.0" rx="1.5" style="animation-delay:0.308s"/>
        <rect class="px" x="182" y="132" width="9.0" height="15.0" rx="1.5" style="animation-delay:0.264s"/>
        <rect class="px" x="193" y="132" width="9.0" height="15.0" rx="1.5" style="animation-delay:0.286s"/>
        <rect class="px" x="204" y="132" width="9.0" height="15.0" rx="1.5" style="animation-delay:0.308s"/>
        <rect class="px" x="215" y="132" width="9.0" height="15.0" rx="1.5" style="animation-delay:0.33s"/>
        <rect class="px" x="226" y="132" width="9.0" height="15.0" rx="1.5" style="animation-delay:0.352s"/>
        <rect class="px" x="270" y="64" width="9.0" height="15.0" rx="1.5" style="animation-delay:0.44s"/>
        <rect class="px" x="314" y="64" width="9.0" height="15.0" rx="1.5" style="animation-delay:0.528s"/>
        <rect class="px" x="281" y="81" width="9.0" height="15.0" rx="1.5" style="animation-delay:0.462s"/>
        <rect class="px" x="303" y="81" width="9.0" height="15.0" rx="1.5" style="animation-delay:0.506s"/>
        <rect class="px" x="292" y="98" width="9.0" height="15.0" rx="1.5" style="animation-delay:0.484s"/>
        <rect class="px" x="292" y="115" width="9.0" height="15.0" rx="1.5" style="animation-delay:0.484s"/>
        <rect class="px" x="292" y="132" width="9.0" height="15.0" rx="1.5" style="animation-delay:0.484s"/>
        <rect class="px" x="336" y="64" width="9.0" height="15.0" rx="1.5" style="animation-delay:0.572s"/>
        <rect class="px" x="347" y="64" width="9.0" height="15.0" rx="1.5" style="animation-delay:0.594s"/>
        <rect class="px" x="358" y="64" width="9.0" height="15.0" rx="1.5" style="animation-delay:0.616s"/>
        <rect class="px" x="369" y="64" width="9.0" height="15.0" rx="1.5" style="animation-delay:0.638s"/>
        <rect class="px" x="380" y="64" width="9.0" height="15.0" rx="1.5" style="animation-delay:0.66s"/>
        <rect class="px" x="336" y="81" width="9.0" height="15.0" rx="1.5" style="animation-delay:0.572s"/>
        <rect class="px" x="380" y="81" width="9.0" height="15.0" rx="1.5" style="animation-delay:0.66s"/>
        <rect class="px" x="336" y="98" width="9.0" height="15.0" rx="1.5" style="animation-delay:0.572s"/>
        <rect class="px" x="380" y="98" width="9.0" height="15.0" rx="1.5" style="animation-delay:0.66s"/>
        <rect class="px" x="336" y="115" width="9.0" height="15.0" rx="1.5" style="animation-delay:0.572s"/>
        <rect class="px" x="380" y="115" width="9.0" height="15.0" rx="1.5" style="animation-delay:0.66s"/>
        <rect class="px" x="336" y="132" width="9.0" height="15.0" rx="1.5" style="animation-delay:0.572s"/>
        <rect class="px" x="347" y="132" width="9.0" height="15.0" rx="1.5" style="animation-delay:0.594s"/>
        <rect class="px" x="358" y="132" width="9.0" height="15.0" rx="1.5" style="animation-delay:0.616s"/>
        <rect class="px" x="369" y="132" width="9.0" height="15.0" rx="1.5" style="animation-delay:0.638s"/>
        <rect class="px" x="380" y="132" width="9.0" height="15.0" rx="1.5" style="animation-delay:0.66s"/>
        <rect class="px" x="402" y="64" width="9.0" height="15.0" rx="1.5" style="animation-delay:0.704s"/>
        <rect class="px" x="446" y="64" width="9.0" height="15.0" rx="1.5" style="animation-delay:0.792s"/>
        <rect class="px" x="402" y="81" width="9.0" height="15.0" rx="1.5" style="animation-delay:0.704s"/>
        <rect class="px" x="446" y="81" width="9.0" height="15.0" rx="1.5" style="animation-delay:0.792s"/>
        <rect class="px" x="402" y="98" width="9.0" height="15.0" rx="1.5" style="animation-delay:0.704s"/>
        <rect class="px" x="446" y="98" width="9.0" height="15.0" rx="1.5" style="animation-delay:0.792s"/>
        <rect class="px" x="402" y="115" width="9.0" height="15.0" rx="1.5" style="animation-delay:0.704s"/>
        <rect class="px" x="446" y="115" width="9.0" height="15.0" rx="1.5" style="animation-delay:0.792s"/>
        <rect class="px" x="402" y="132" width="9.0" height="15.0" rx="1.5" style="animation-delay:0.704s"/>
        <rect class="px" x="413" y="132" width="9.0" height="15.0" rx="1.5" style="animation-delay:0.726s"/>
        <rect class="px" x="424" y="132" width="9.0" height="15.0" rx="1.5" style="animation-delay:0.748s"/>
        <rect class="px" x="435" y="132" width="9.0" height="15.0" rx="1.5" style="animation-delay:0.77s"/>
        <rect class="px" x="446" y="132" width="9.0" height="15.0" rx="1.5" style="animation-delay:0.792s"/>
        <rect class="px" x="468" y="64" width="9.0" height="15.0" rx="1.5" style="animation-delay:0.836s"/>
        <rect class="px" x="479" y="64" width="9.0" height="15.0" rx="1.5" style="animation-delay:0.858s"/>
        <rect class="px" x="490" y="64" width="9.0" height="15.0" rx="1.5" style="animation-delay:0.88s"/>
        <rect class="px" x="501" y="64" width="9.0" height="15.0" rx="1.5" style="animation-delay:0.902s"/>
        <rect class="px" x="512" y="64" width="9.0" height="15.0" rx="1.5" style="animation-delay:0.924s"/>
        <rect class="px" x="468" y="81" width="9.0" height="15.0" rx="1.5" style="animation-delay:0.836s"/>
        <rect class="px" x="468" y="98" width="9.0" height="15.0" rx="1.5" style="animation-delay:0.836s"/>
        <rect class="px" x="479" y="98" width="9.0" height="15.0" rx="1.5" style="animation-delay:0.858s"/>
        <rect class="px" x="490" y="98" width="9.0" height="15.0" rx="1.5" style="animation-delay:0.88s"/>
        <rect class="px" x="501" y="98" width="9.0" height="15.0" rx="1.5" style="animation-delay:0.902s"/>
        <rect class="px" x="512" y="98" width="9.0" height="15.0" rx="1.5" style="animation-delay:0.924s"/>
        <rect class="px" x="512" y="115" width="9.0" height="15.0" rx="1.5" style="animation-delay:0.924s"/>
        <rect class="px" x="468" y="132" width="9.0" height="15.0" rx="1.5" style="animation-delay:0.836s"/>
        <rect class="px" x="479" y="132" width="9.0" height="15.0" rx="1.5" style="animation-delay:0.858s"/>
        <rect class="px" x="490" y="132" width="9.0" height="15.0" rx="1.5" style="animation-delay:0.88s"/>
        <rect class="px" x="501" y="132" width="9.0" height="15.0" rx="1.5" style="animation-delay:0.902s"/>
        <rect class="px" x="512" y="132" width="9.0" height="15.0" rx="1.5" style="animation-delay:0.924s"/>
        <rect class="px" x="534" y="64" width="9.0" height="15.0" rx="1.5" style="animation-delay:0.968s"/>
        <rect class="px" x="578" y="64" width="9.0" height="15.0" rx="1.5" style="animation-delay:1.056s"/>
        <rect class="px" x="534" y="81" width="9.0" height="15.0" rx="1.5" style="animation-delay:0.968s"/>
        <rect class="px" x="578" y="81" width="9.0" height="15.0" rx="1.5" style="animation-delay:1.056s"/>
        <rect class="px" x="534" y="98" width="9.0" height="15.0" rx="1.5" style="animation-delay:0.968s"/>
        <rect class="px" x="578" y="98" width="9.0" height="15.0" rx="1.5" style="animation-delay:1.056s"/>
        <rect class="px" x="534" y="115" width="9.0" height="15.0" rx="1.5" style="animation-delay:0.968s"/>
        <rect class="px" x="578" y="115" width="9.0" height="15.0" rx="1.5" style="animation-delay:1.056s"/>
        <rect class="px" x="534" y="132" width="9.0" height="15.0" rx="1.5" style="animation-delay:0.968s"/>
        <rect class="px" x="545" y="132" width="9.0" height="15.0" rx="1.5" style="animation-delay:0.99s"/>
        <rect class="px" x="556" y="132" width="9.0" height="15.0" rx="1.5" style="animation-delay:1.012s"/>
        <rect class="px" x="567" y="132" width="9.0" height="15.0" rx="1.5" style="animation-delay:1.034s"/>
        <rect class="px" x="578" y="132" width="9.0" height="15.0" rx="1.5" style="animation-delay:1.056s"/>
        <rect class="px" x="600" y="64" width="9.0" height="15.0" rx="1.5" style="animation-delay:1.1s"/>
        <rect class="px" x="611" y="64" width="9.0" height="15.0" rx="1.5" style="animation-delay:1.122s"/>
        <rect class="px" x="622" y="64" width="9.0" height="15.0" rx="1.5" style="animation-delay:1.144s"/>
        <rect class="px" x="633" y="64" width="9.0" height="15.0" rx="1.5" style="animation-delay:1.166s"/>
        <rect class="px" x="644" y="64" width="9.0" height="15.0" rx="1.5" style="animation-delay:1.188s"/>
        <rect class="px" x="600" y="81" width="9.0" height="15.0" rx="1.5" style="animation-delay:1.1s"/>
        <rect class="px" x="600" y="98" width="9.0" height="15.0" rx="1.5" style="animation-delay:1.1s"/>
        <rect class="px" x="611" y="98" width="9.0" height="15.0" rx="1.5" style="animation-delay:1.122s"/>
        <rect class="px" x="622" y="98" width="9.0" height="15.0" rx="1.5" style="animation-delay:1.144s"/>
        <rect class="px" x="633" y="98" width="9.0" height="15.0" rx="1.5" style="animation-delay:1.166s"/>
        <rect class="px" x="644" y="98" width="9.0" height="15.0" rx="1.5" style="animation-delay:1.188s"/>
        <rect class="px" x="600" y="115" width="9.0" height="15.0" rx="1.5" style="animation-delay:1.1s"/>
        <rect class="px" x="600" y="132" width="9.0" height="15.0" rx="1.5" style="animation-delay:1.1s"/>

      <g mask="url(#m1)">
        <text class="mono" x="50" y="193" font-size="14" textLength="184.8" lengthAdjust="spacing" xml:space="preserve"><tspan fill="#ffb85c">3liAf@github</tspan><tspan fill="#8f7aa0">:</tspan><tspan fill="#ff7b4a">~</tspan><tspan fill="#8f7aa0">$ </tspan><tspan fill="#f3e9f7">whoami</tspan></text>
      </g>
      <g class="cur cur1"><rect class="blink" x="50" y="181" width="8" height="15" fill="#ff7b4a"/></g>

      <text class="out mono" x="50" y="219" font-size="14" fill="#c9a7c7">Ali Afzal Yousuf <tspan fill="#ff4d8d">.</tspan> AI Engineer <tspan fill="#ff4d8d">.</tspan> Founder @ Astrameld</text>

      <g mask="url(#m2)">
        <text class="mono" x="50" y="255" font-size="14" textLength="218.4" lengthAdjust="spacing" xml:space="preserve"><tspan fill="#ffb85c">3liAf@github</tspan><tspan fill="#8f7aa0">:</tspan><tspan fill="#ff7b4a">~</tspan><tspan fill="#8f7aa0">$ </tspan><tspan fill="#f3e9f7">ls skills/</tspan></text>
      </g>
      <g class="cur cur2"><rect class="blink" x="50" y="243" width="8" height="15" fill="#ff7b4a"/></g>

        <g class="chip" style="animation-delay:6.60s"><rect x="50" y="272" width="63" height="24" rx="6" fill="#ff4d8d" fill-opacity="0.14" stroke="#ff4d8d" stroke-opacity="0.5"/><text class="mono" x="81.5" y="288" font-size="12" fill="#ff4d8d" text-anchor="middle">Python</text></g>
        <g class="chip" style="animation-delay:6.78s"><rect x="123" y="272" width="70" height="24" rx="6" fill="#ff6a5e" fill-opacity="0.14" stroke="#ff6a5e" stroke-opacity="0.5"/><text class="mono" x="158.0" y="288" font-size="12" fill="#ff6a5e" text-anchor="middle">PyTorch</text></g>
        <g class="chip" style="animation-delay:6.96s"><rect x="203" y="272" width="85" height="24" rx="6" fill="#ff7b4a" fill-opacity="0.14" stroke="#ff7b4a" stroke-opacity="0.5"/><text class="mono" x="245.5" y="288" font-size="12" fill="#ff7b4a" text-anchor="middle">LangChain</text></g>
        <g class="chip" style="animation-delay:7.14s"><rect x="298" y="272" width="70" height="24" rx="6" fill="#ff9a3c" fill-opacity="0.14" stroke="#ff9a3c" stroke-opacity="0.5"/><text class="mono" x="333.0" y="288" font-size="12" fill="#ff9a3c" text-anchor="middle">FastAPI</text></g>
        <g class="chip" style="animation-delay:7.32s"><rect x="378" y="272" width="46" height="24" rx="6" fill="#ffb85c" fill-opacity="0.14" stroke="#ffb85c" stroke-opacity="0.5"/><text class="mono" x="401.0" y="288" font-size="12" fill="#ffb85c" text-anchor="middle">AWS</text></g>
        <g class="chip" style="animation-delay:7.50s"><rect x="434" y="272" width="63" height="24" rx="6" fill="#ffd166" fill-opacity="0.14" stroke="#ffd166" stroke-opacity="0.5"/><text class="mono" x="465.5" y="288" font-size="12" fill="#ffd166" text-anchor="middle">Docker</text></g>
    </g>
    <rect x="0.5" y="0.5" width="879" height="329" rx="12" fill="none" stroke="#3d2547"/>
  </g>
</svg>
